<svg width="19" height="24" viewBox="0 0 19 24" fill="none" xmlns="http://www.w3.org/2000/svg">
<path d="M12.9965 15.2987H14.4412C16.0676 15.2987 17.6568 16.516 17.3864 18.0817L17.0919 19.5659C16.6872 21.2936 15.773 22.3489 14.1466 22.5H4.872C3.24562 22.3489 2.3694 21.0334 1.92673 19.5659L1.6322 18.0817C1.27376 16.5627 2.95109 15.2987 4.57747 15.2987H5.98236M4.51121 6.52862C4.17839 6.52862 3.84587 6.81026 3.84587 7.1573V8.41438C3.84587 8.76114 4.14393 9.04334 4.51121 9.04334C4.51121 9.04334 5.50907 11.5572 6.17411 12.5004C6.58615 13.0848 7.17197 14.4877 9.5002 14.4877C11.8284 14.4877 12.414 13.0848 12.8263 12.5004C13.4916 11.5572 14.4892 9.04334 14.4892 9.04334C14.8562 9.04334 15.1545 8.76114 15.1545 8.41438V7.1573C15.1545 6.81026 14.8562 6.52862 14.4892 6.52862V5.58573C14.4892 3.38577 13.1721 1.5 9.5002 1.5C5.84129 1.5 4.51121 3.38549 4.51121 5.58573V6.52862Z" stroke="#FEC432" stroke-miterlimit="10" stroke-linecap="round" stroke-linejoin="round"/>
</svg>
